<?xml version="1.0" encoding="UTF-8"?>
<svg xmlns="http://www.w3.org/2000/svg" version="1.1" viewBox="0 0 40 40">
  <defs>
    <style>
      .cls-1 {
        fill: #fff;
      }

      .cls-2 {
        fill: #2c98f6;
      }
    </style>
  </defs>
  <!-- Generator: Adobe Illustrator 28.6.0, SVG Export Plug-In . SVG Version: 1.2.0 Build 709)  -->
  <g>
    <g id="Layer_1">
      <g>
        <path class="cls-1" d="M6.2,18.9c0-3.3,0-6.5,0-9.8,0-.9.3-1.7,1.2-2.2.3-.2.7-.3,1.1-.3.6,0,1.1,0,1.7,0,.2,0,.3,0,.4-.2.4-.7,1-1.1,1.8-1.1.8,0,1.4.4,1.8,1.1,0,.2.2.2.4.2,3.1,0,6.2,0,9.3,0,.2,0,.3,0,.4-.2.4-.7,1-1.1,1.8-1.1.8,0,1.5.4,1.8,1.1,0,.2.2.2.4.2.6,0,1.1,0,1.7,0,1.2,0,2.1.9,2.2,2,0,.2,0,.4,0,.6,0,4.2,0,8.4,0,12.6,0,.3,0,.4.3.6,2.6,1.3,4.1,4.2,3.7,7-.5,3.1-2.7,5.3-5.7,5.8-2.9.5-5.8-1-7.2-3.7-.1-.2-.2-.3-.5-.3-4.7,0-9.4,0-14,0-.5,0-.9,0-1.3-.3-.9-.5-1.2-1.2-1.2-2.2,0-3.3,0-6.5,0-9.8ZM30.8,21.8c0-.1,0-.2,0-.3,0-2.6,0-5.1,0-7.7,0-.3-.1-.4-.4-.4-7.5,0-15,0-22.5,0-.3,0-.4,0-.4.4,0,5,0,9.9,0,14.9,0,.8.4,1.2,1.2,1.2,4.5,0,9.1,0,13.6,0,.1,0,.2,0,.3,0-1-4.6,3.1-9,8.1-8.1ZM29.4,23c-3.1,0-5.7,2.7-5.4,6.1.3,2.5,2.6,5.1,6.1,4.8,2.5-.3,5.2-2.6,4.8-6.1-.3-2.9-2.8-4.8-5.5-4.8ZM7.6,12.1h23.1s0,0,0-.1c0-1,0-2,0-3,0-.6-.4-.9-1-.9-.2,0-.4,0-.5,0-.4,0-.8,0-1.1,0,0,.4,0,.8,0,1.1-.2,1.1-1.2,1.7-2.3,1.6-.9,0-1.7-1-1.7-2,0-.2,0-.4,0-.7h-9.6c0,.3,0,.5,0,.7,0,1.1-.9,1.9-2,2-1.1,0-2-.8-2.1-1.9,0-.3,0-.5,0-.8-.6,0-1.1,0-1.6,0-.8,0-1.2.5-1.2,1.2,0,.9,0,1.7,0,2.6,0,.1,0,.2,0,.3ZM13.1,8c0-.2,0-.5,0-.7,0,0,0,0,0,0,0-.3-.3-.6-.6-.7-.3,0-.7.2-.7.5,0,.6,0,1.2,0,1.8,0,.3.4.5.7.5.4,0,.6-.3.6-.7,0-.2,0-.5,0-.7ZM26.7,8h0c0-.2,0-.5,0-.7,0,0,0-.1,0-.2,0-.3-.4-.6-.7-.5-.4,0-.6.3-.6.7,0,.5,0,.9,0,1.4,0,.4.3.6.6.7.3,0,.7-.2.7-.6,0-.3,0-.5,0-.8Z"/>
        <path class="cls-2" d="M29.4,23c2.7,0,5.1,2,5.5,4.8.4,3.5-2.2,5.8-4.8,6.1-3.5.3-5.8-2.2-6.1-4.8-.4-3.4,2.3-6.1,5.4-6.1ZM28.8,27.1s0,0,0,0c0,.4,0,.8,0,1.2,0,.2,0,.5.2.6.4.5.9.9,1.3,1.3.3.3.7.3,1,0,.3-.3.3-.7,0-1-.3-.3-.6-.6-.9-.9-.1-.1-.2-.3-.2-.5,0-.6,0-1.3,0-1.9,0-.1,0-.3,0-.4,0-.3-.3-.5-.7-.5-.3,0-.6.2-.6.5,0,.5,0,1,0,1.5Z"/>
        <path class="cls-2" d="M7.6,12.1c0-.1,0-.2,0-.3,0-.9,0-1.7,0-2.6,0-.7.4-1.2,1.2-1.2.5,0,1,0,1.6,0,0,.3,0,.6,0,.8,0,1.1.9,1.9,2.1,1.9,1.1,0,2-.9,2-2,0-.2,0-.5,0-.7h9.6c0,.2,0,.4,0,.7,0,1,.8,1.9,1.7,2,1.1.1,2.1-.5,2.3-1.6,0-.3,0-.7,0-1.1.4,0,.8,0,1.1,0,.2,0,.4,0,.5,0,.6,0,1,.3,1,.9,0,1,0,2,0,3,0,0,0,0,0,.1H7.6Z"/>
        <path class="cls-1" d="M14.4,18.3c0,.4,0,.9,0,1.3,0,.5-.3.7-.7.7-.9,0-1.7,0-2.6,0-.4,0-.7-.3-.7-.7,0-.9,0-1.8,0-2.7,0-.4.3-.7.7-.7.9,0,1.7,0,2.6,0,.5,0,.7.3.7.7,0,.4,0,.9,0,1.3ZM13,17.5c-.4,0-.8,0-1.2,0,0,0-.2.1-.2.2,0,.3,0,.7,0,1,0,0,.1.2.2.2.4,0,.8,0,1.2,0v-1.4Z"/>
        <path class="cls-1" d="M21.2,18.2c0,.4,0,.9,0,1.3,0,.5-.3.8-.8.8-.9,0-1.7,0-2.6,0-.5,0-.7-.3-.7-.7,0-.9,0-1.7,0-2.6,0-.5.3-.7.7-.7.9,0,1.7,0,2.6,0,.4,0,.7.3.7.7,0,.4,0,.9,0,1.3ZM18.5,17.5v1.4h1.4v-1.4h-1.4Z"/>
        <path class="cls-1" d="M24,18.2c0-.4,0-.9,0-1.3,0-.4.3-.7.7-.7.9,0,1.8,0,2.7,0,.4,0,.7.2.7.7,0,.9,0,1.8,0,2.7,0,.4-.3.7-.7.7-.9,0-1.7,0-2.6,0-.5,0-.7-.3-.7-.7,0-.4,0-.9,0-1.3ZM25.3,18.9c.4,0,.8,0,1.2,0,0,0,.2,0,.2-.1,0-.4,0-.8,0-1.3h-1.4v1.4Z"/>
        <path class="cls-1" d="M19.2,23c.4,0,.9,0,1.3,0,.4,0,.7.3.7.7,0,.9,0,1.8,0,2.7,0,.4-.2.7-.7.7-.9,0-1.8,0-2.7,0-.4,0-.7-.3-.7-.7,0-.9,0-1.7,0-2.6,0-.5.3-.7.7-.7.4,0,.9,0,1.3,0ZM18.5,24.4c0,.4,0,.8,0,1.3,0,0,.1.1.2.1.3,0,.7,0,1,0,0,0,.2-.1.2-.2,0-.4,0-.8,0-1.2h-1.4Z"/>
        <path class="cls-1" d="M14.4,25.1c0,.4,0,.9,0,1.3,0,.5-.2.7-.7.7-.9,0-1.8,0-2.7,0-.4,0-.7-.3-.7-.7,0-.9,0-1.8,0-2.7,0-.4.3-.7.7-.7.9,0,1.7,0,2.6,0,.5,0,.7.3.7.7,0,0,0,0,0,0,0,.4,0,.8,0,1.2ZM13,25.8v-1.4h-1.4c0,.4,0,.8,0,1.2,0,0,.1.2.2.2.4,0,.8,0,1.2,0Z"/>
        <path class="cls-1" d="M28.8,27.1c0-.5,0-1,0-1.5,0-.3.3-.5.6-.5.3,0,.6.2.7.5,0,.1,0,.3,0,.4,0,.6,0,1.3,0,1.9,0,.2,0,.4.2.5.3.3.6.6.9.9.3.3.3.7,0,1-.3.3-.7.3-1,0-.4-.4-.9-.9-1.3-1.3-.1-.1-.2-.4-.2-.6,0-.4,0-.8,0-1.2,0,0,0,0,0,0Z"/>
      </g>
    </g>
  </g>
</svg>